<svg width="19" height="16" viewBox="0 0 19 16" fill="none" xmlns="http://www.w3.org/2000/svg">
<path d="M1 7C0.447715 7 0 7.44772 0 8C0 8.55228 0.447715 9 1 9L1 7ZM17.9859 8.70711C18.3765 8.31658 18.3765 7.68342 17.9859 7.29289L11.622 0.928932C11.2314 0.538408 10.5983 0.538408 10.2078 0.928932C9.81723 1.31946 9.81723 1.95262 10.2078 2.34315L15.8646 8L10.2078 13.6569C9.81723 14.0474 9.81723 14.6805 10.2078 15.0711C10.5983 15.4616 11.2314 15.4616 11.622 15.0711L17.9859 8.70711ZM1 8L1 9L17.2788 9V8V7L1 7L1 8Z" fill="white"/>
</svg>
